<?xml version="1.0" encoding="UTF-8"?>
<svg width="21px" height="21px" viewBox="0 0 21 21" version="1.1" xmlns="http://www.w3.org/2000/svg" xmlns:xlink="http://www.w3.org/1999/xlink">
    <!-- Generator: Sketch 52.6 (67491) - http://www.bohemiancoding.com/sketch -->
    <title>like - simple-line-icons copy 3</title>
    <desc>Created with Sketch.</desc>
    <g id="Page-1" stroke="none" stroke-width="1" fill="none" fill-rule="evenodd" opacity="0.4">
        <g id="Home" transform="translate(-852.000000, -311.000000)" fill="#0D132D">
            <g id="post-copy-3" transform="translate(829.000000, 125.000000)">
                <path d="M35.8945312,206.25 C33.0429545,206.25 31.3437527,206.188152 30.796875,206.064453 C30.2499973,205.940755 29.800783,205.748699 29.4492188,205.488281 C29.2669262,205.345051 28.9348982,205.221355 28.453125,205.117188 C27.9713518,205.01302 27.0924543,204.921875 25.8164062,204.84375 C25.7122391,204.830729 25.617839,204.807943 25.5332031,204.775391 C25.4485673,204.742838 25.3802086,204.6875 25.328125,204.609375 C25.3020832,204.570312 25.0709657,204.111333 24.6347656,203.232422 C24.1985655,202.353511 23.9804688,201.165372 23.9804688,199.667969 C23.9804688,198.183586 24.1367172,197.093102 24.4492188,196.396484 C24.7617203,195.699866 24.9244791,195.332031 24.9375,195.292969 C25.0026045,195.201822 25.0807287,195.130209 25.171875,195.078125 C25.2630213,195.026041 25.3671869,195 25.484375,195 C26.0052109,195 26.5716115,194.837241 27.1835938,194.511719 C27.795576,194.186196 28.4108042,193.707685 29.0292969,193.076172 C29.6477896,192.444658 30.2532522,191.669926 30.8457031,190.751953 C31.438154,189.83398 31.9817684,188.782558 32.4765625,187.597656 C32.6458342,187.194008 32.808593,186.868491 32.9648438,186.621094 C33.1210945,186.373697 33.5117156,186.25 34.1367188,186.25 C34.5013039,186.25 34.8626284,186.363931 35.2207031,186.591797 C35.5787778,186.819663 35.8554678,187.096353 36.0507812,187.421875 C36.2460947,187.747397 36.3763018,188.15755 36.4414062,188.652344 C36.5065107,189.147138 36.5260418,189.664711 36.5,190.205078 C36.4739582,190.745445 36.4186202,191.276039 36.3339844,191.796875 C36.2493485,192.317711 36.1614588,192.766925 36.0703125,193.144531 C36.7083365,193.144531 37.5156201,193.141276 38.4921875,193.134766 C39.4687549,193.128255 40.2369764,193.125 40.796875,193.125 C41.565108,193.125 42.1868466,193.333331 42.6621094,193.75 C43.1373722,194.166669 43.3815104,194.713538 43.3945312,195.390625 C43.3945312,195.61198 43.3815105,195.846353 43.3554688,196.09375 C43.329427,196.341147 43.2838545,196.542968 43.21875,196.699219 C43.3880217,196.86849 43.560546,197.080077 43.7363281,197.333984 C43.9121103,197.587892 44.0065104,197.877603 44.0195312,198.203125 C44.0325521,198.632815 43.9316417,199.003905 43.7167969,199.316406 C43.5019521,199.628908 43.3033863,199.882812 43.1210938,200.078125 C43.1601564,200.195313 43.2122393,200.335286 43.2773438,200.498047 C43.3424482,200.660808 43.3684896,200.839843 43.3554688,201.035156 C43.329427,201.516929 43.1731785,201.914061 42.8867188,202.226562 C42.600259,202.539064 42.3398449,202.779947 42.1054688,202.949219 C42.1315105,203.079428 42.1477864,203.255207 42.1542969,203.476562 C42.1608073,203.697918 42.1380211,203.906249 42.0859375,204.101562 C42.0078121,204.479169 41.8092464,204.804686 41.4902344,205.078125 C41.1712224,205.351564 40.7480495,205.572916 40.2207031,205.742188 C39.6933567,205.911459 39.0651078,206.038411 38.3359375,206.123047 C37.6067672,206.207683 36.7929732,206.25 35.8945312,206.25 Z M26.1484375,203.574219 C27.2682348,203.665365 28.1471322,203.779296 28.7851562,203.916016 C29.4231803,204.052735 29.8984359,204.23828 30.2109375,204.472656 C30.4583346,204.66797 30.8066384,204.804687 31.2558594,204.882812 C31.7050804,204.960938 33.2512889,205 35.8945312,205 C36.2851582,205 36.7539035,204.990234 37.3007812,204.970703 C37.847659,204.951172 38.3749975,204.902344 38.8828125,204.824219 C39.3906275,204.746093 39.8333314,204.628907 40.2109375,204.472656 C40.5885436,204.316405 40.8098955,204.101564 40.875,203.828125 C40.9140627,203.60677 40.8619799,203.404949 40.71875,203.222656 C40.5755201,203.040364 40.5039062,202.949219 40.5039062,202.949219 C40.4388018,202.792968 40.4355466,202.633464 40.4941406,202.470703 C40.5527347,202.307942 40.6601555,202.194011 40.8164062,202.128906 C40.8294271,202.128906 41.0442688,202.024741 41.4609375,201.816406 C41.8776062,201.608072 42.0924479,201.334637 42.1054688,200.996094 C42.1184896,200.761718 42.0729172,200.582683 41.96875,200.458984 C41.8645828,200.335286 41.8125,200.266927 41.8125,200.253906 C41.7213537,200.123697 41.6920571,199.973959 41.7246094,199.804688 C41.7571616,199.635416 41.838541,199.498698 41.96875,199.394531 C41.96875,199.394531 42.1022122,199.283855 42.3691406,199.0625 C42.636069,198.841145 42.7695312,198.56771 42.7695312,198.242188 C42.7565104,197.968749 42.6328137,197.747397 42.3984375,197.578125 C42.1640613,197.408853 42.0403646,197.324219 42.0273438,197.324219 C41.9492184,197.272135 41.8841148,197.210287 41.8320312,197.138672 C41.7799477,197.067057 41.7408855,196.985678 41.7148438,196.894531 C41.7018229,196.816406 41.705078,196.731771 41.7246094,196.640625 C41.7441407,196.549479 41.7799477,196.464844 41.8320312,196.386719 C41.8320312,196.386719 41.8841141,196.285808 41.9882812,196.083984 C42.0924484,195.88216 42.1445312,195.657553 42.1445312,195.410156 C42.1315104,194.902341 41.9329446,194.602865 41.5488281,194.511719 C41.1647116,194.420572 40.9140631,194.375 40.796875,194.375 C40.406248,194.375 39.8919303,194.375 39.2539062,194.375 C38.6158822,194.375 37.9941437,194.375 37.3886719,194.375 C36.7832001,194.375 36.262372,194.378255 35.8261719,194.384766 C35.3899718,194.391276 35.171875,194.394531 35.171875,194.394531 C35.0546869,194.394531 34.9505213,194.36849 34.859375,194.316406 C34.7682287,194.264323 34.6966148,194.192709 34.6445312,194.101562 C34.5794268,194.023437 34.5436198,193.932292 34.5371094,193.828125 C34.5305989,193.723958 34.5468748,193.619792 34.5859375,193.515625 C34.7421883,193.072914 34.8756505,192.584638 34.9863281,192.050781 C35.0970058,191.516924 35.17513,190.992841 35.2207031,190.478516 C35.2662763,189.96419 35.2727866,189.49219 35.2402344,189.0625 C35.2076821,188.63281 35.1197924,188.300782 34.9765625,188.066406 C34.8854162,187.923176 34.8007816,187.792969 34.7226562,187.675781 C34.6445309,187.558593 34.4492203,187.5 34.1367188,187.5 C34.0976561,187.5 34.0325525,187.532552 33.9414062,187.597656 C33.85026,187.662761 33.7460943,187.82552 33.6289062,188.085938 C33.1080703,189.335944 32.5319042,190.452469 31.9003906,191.435547 C31.2688771,192.418625 30.6113315,193.25195 29.9277344,193.935547 C29.2441372,194.619144 28.5572951,195.156248 27.8671875,195.546875 C27.1770799,195.937502 26.513024,196.165364 25.875,196.230469 C25.7578119,196.477866 25.6210945,196.874997 25.4648438,197.421875 C25.308593,197.968753 25.2304688,198.717443 25.2304688,199.667969 C25.2304688,200.631515 25.3443999,201.461585 25.5722656,202.158203 C25.8001313,202.854821 25.9921867,203.326822 26.1484375,203.574219 Z" id="like---simple-line-icons-copy-3"></path>
            </g>
        </g>
    </g>
</svg>