<?xml version="1.0" standalone="no"?>
<!DOCTYPE svg PUBLIC "-//W3C//DTD SVG 20010904//EN"
 "http://www.w3.org/TR/2001/REC-SVG-20010904/DTD/svg10.dtd">
<svg version="1.0" xmlns="http://www.w3.org/2000/svg"
 width="512.000000pt" height="512.000000pt" viewBox="0 0 512.000000 512.000000"
 preserveAspectRatio="xMidYMid meet">

<g transform="translate(0.000000,512.000000) scale(0.100000,-0.100000)"
fill="#000000" stroke="none">
<path d="M3158 3369 c-15 -8 -18 -24 -18 -90 l0 -80 -257 6 c-241 6 -263 5
-336 -14 -202 -53 -353 -175 -442 -356 -52 -105 -65 -171 -72 -355 -6 -175 0
-210 36 -210 25 0 36 16 50 75 31 125 135 263 259 343 119 77 202 91 535 92
l227 0 0 -78 c0 -75 9 -102 35 -102 6 0 141 83 300 184 238 150 290 187 290
206 0 18 -51 54 -285 202 -157 99 -289 182 -295 184 -5 2 -18 -1 -27 -7z"/>
<path d="M1589 3294 c-62 -19 -136 -71 -176 -123 -63 -82 -64 -92 -61 -667 l3
-519 27 -50 c31 -61 104 -130 161 -155 87 -39 147 -41 897 -38 l725 3 58 23
c87 35 150 90 186 163 l31 62 0 313 c0 381 10 362 -137 271 -56 -35 -108 -69
-117 -76 -14 -12 -16 -44 -16 -236 0 -204 -2 -225 -19 -246 l-19 -24 -725 -3
-725 -2 -29 24 -28 24 -3 475 c-2 305 1 484 8 501 18 48 58 56 278 56 188 0
200 1 218 21 32 36 149 108 214 133 67 25 89 48 70 72 -18 21 -752 20 -821 -2z"/>
</g>
</svg>
