<?xml version="1.0" encoding="UTF-8"?>
<svg width="21px" height="21px" viewBox="0 0 21 21" version="1.1" xmlns="http://www.w3.org/2000/svg" xmlns:xlink="http://www.w3.org/1999/xlink">
    <!-- Generator: Sketch 52.6 (67491) - http://www.bohemiancoding.com/sketch -->
    <title>like - simple-line-icons</title>
    <desc>Created with Sketch.</desc>
    <g id="Page-1" stroke="none" stroke-width="1" fill="none" fill-rule="evenodd" opacity="0.4">
        <g id="Home" transform="translate(-343.000000, -611.000000)" fill="#0D132D">
            <g id="post" transform="translate(317.000000, 125.000000)">
                <path d="M38.8945312,506.25 C36.0429545,506.25 34.3437527,506.188152 33.796875,506.064453 C33.2499973,505.940755 32.800783,505.748699 32.4492188,505.488281 C32.2669262,505.345051 31.9348982,505.221355 31.453125,505.117188 C30.9713518,505.01302 30.0924543,504.921875 28.8164062,504.84375 C28.7122391,504.830729 28.617839,504.807943 28.5332031,504.775391 C28.4485673,504.742838 28.3802086,504.6875 28.328125,504.609375 C28.3020832,504.570312 28.0709657,504.111333 27.6347656,503.232422 C27.1985655,502.353511 26.9804688,501.165372 26.9804688,499.667969 C26.9804688,498.183586 27.1367172,497.093102 27.4492188,496.396484 C27.7617203,495.699866 27.9244791,495.332031 27.9375,495.292969 C28.0026045,495.201822 28.0807287,495.130209 28.171875,495.078125 C28.2630213,495.026041 28.3671869,495 28.484375,495 C29.0052109,495 29.5716115,494.837241 30.1835938,494.511719 C30.795576,494.186196 31.4108042,493.707685 32.0292969,493.076172 C32.6477896,492.444658 33.2532522,491.669926 33.8457031,490.751953 C34.438154,489.83398 34.9817684,488.782558 35.4765625,487.597656 C35.6458342,487.194008 35.808593,486.868491 35.9648438,486.621094 C36.1210945,486.373697 36.5117156,486.25 37.1367188,486.25 C37.5013039,486.25 37.8626284,486.363931 38.2207031,486.591797 C38.5787778,486.819663 38.8554678,487.096353 39.0507812,487.421875 C39.2460947,487.747397 39.3763018,488.15755 39.4414062,488.652344 C39.5065107,489.147138 39.5260418,489.664711 39.5,490.205078 C39.4739582,490.745445 39.4186202,491.276039 39.3339844,491.796875 C39.2493485,492.317711 39.1614588,492.766925 39.0703125,493.144531 C39.7083365,493.144531 40.5156201,493.141276 41.4921875,493.134766 C42.4687549,493.128255 43.2369764,493.125 43.796875,493.125 C44.565108,493.125 45.1868466,493.333331 45.6621094,493.75 C46.1373722,494.166669 46.3815104,494.713538 46.3945312,495.390625 C46.3945312,495.61198 46.3815105,495.846353 46.3554688,496.09375 C46.329427,496.341147 46.2838545,496.542968 46.21875,496.699219 C46.3880217,496.86849 46.560546,497.080077 46.7363281,497.333984 C46.9121103,497.587892 47.0065104,497.877603 47.0195312,498.203125 C47.0325521,498.632815 46.9316417,499.003905 46.7167969,499.316406 C46.5019521,499.628908 46.3033863,499.882812 46.1210938,500.078125 C46.1601564,500.195313 46.2122393,500.335286 46.2773438,500.498047 C46.3424482,500.660808 46.3684896,500.839843 46.3554688,501.035156 C46.329427,501.516929 46.1731785,501.914061 45.8867188,502.226562 C45.600259,502.539064 45.3398449,502.779947 45.1054688,502.949219 C45.1315105,503.079428 45.1477864,503.255207 45.1542969,503.476562 C45.1608073,503.697918 45.1380211,503.906249 45.0859375,504.101562 C45.0078121,504.479169 44.8092464,504.804686 44.4902344,505.078125 C44.1712224,505.351564 43.7480495,505.572916 43.2207031,505.742188 C42.6933567,505.911459 42.0651078,506.038411 41.3359375,506.123047 C40.6067672,506.207683 39.7929732,506.25 38.8945312,506.25 Z M29.1484375,503.574219 C30.2682348,503.665365 31.1471322,503.779296 31.7851562,503.916016 C32.4231803,504.052735 32.8984359,504.23828 33.2109375,504.472656 C33.4583346,504.66797 33.8066384,504.804687 34.2558594,504.882812 C34.7050804,504.960938 36.2512889,505 38.8945312,505 C39.2851582,505 39.7539035,504.990234 40.3007812,504.970703 C40.847659,504.951172 41.3749975,504.902344 41.8828125,504.824219 C42.3906275,504.746093 42.8333314,504.628907 43.2109375,504.472656 C43.5885436,504.316405 43.8098955,504.101564 43.875,503.828125 C43.9140627,503.60677 43.8619799,503.404949 43.71875,503.222656 C43.5755201,503.040364 43.5039062,502.949219 43.5039062,502.949219 C43.4388018,502.792968 43.4355466,502.633464 43.4941406,502.470703 C43.5527347,502.307942 43.6601555,502.194011 43.8164062,502.128906 C43.8294271,502.128906 44.0442688,502.024741 44.4609375,501.816406 C44.8776062,501.608072 45.0924479,501.334637 45.1054688,500.996094 C45.1184896,500.761718 45.0729172,500.582683 44.96875,500.458984 C44.8645828,500.335286 44.8125,500.266927 44.8125,500.253906 C44.7213537,500.123697 44.6920571,499.973959 44.7246094,499.804688 C44.7571616,499.635416 44.838541,499.498698 44.96875,499.394531 C44.96875,499.394531 45.1022122,499.283855 45.3691406,499.0625 C45.636069,498.841145 45.7695312,498.56771 45.7695312,498.242188 C45.7565104,497.968749 45.6328137,497.747397 45.3984375,497.578125 C45.1640613,497.408853 45.0403646,497.324219 45.0273438,497.324219 C44.9492184,497.272135 44.8841148,497.210287 44.8320312,497.138672 C44.7799477,497.067057 44.7408855,496.985678 44.7148438,496.894531 C44.7018229,496.816406 44.705078,496.731771 44.7246094,496.640625 C44.7441407,496.549479 44.7799477,496.464844 44.8320312,496.386719 C44.8320312,496.386719 44.8841141,496.285808 44.9882812,496.083984 C45.0924484,495.88216 45.1445312,495.657553 45.1445312,495.410156 C45.1315104,494.902341 44.9329446,494.602865 44.5488281,494.511719 C44.1647116,494.420572 43.9140631,494.375 43.796875,494.375 C43.406248,494.375 42.8919303,494.375 42.2539062,494.375 C41.6158822,494.375 40.9941437,494.375 40.3886719,494.375 C39.7832001,494.375 39.262372,494.378255 38.8261719,494.384766 C38.3899718,494.391276 38.171875,494.394531 38.171875,494.394531 C38.0546869,494.394531 37.9505213,494.36849 37.859375,494.316406 C37.7682287,494.264323 37.6966148,494.192709 37.6445312,494.101562 C37.5794268,494.023437 37.5436198,493.932292 37.5371094,493.828125 C37.5305989,493.723958 37.5468748,493.619792 37.5859375,493.515625 C37.7421883,493.072914 37.8756505,492.584638 37.9863281,492.050781 C38.0970058,491.516924 38.17513,490.992841 38.2207031,490.478516 C38.2662763,489.96419 38.2727866,489.49219 38.2402344,489.0625 C38.2076821,488.63281 38.1197924,488.300782 37.9765625,488.066406 C37.8854162,487.923176 37.8007816,487.792969 37.7226562,487.675781 C37.6445309,487.558593 37.4492203,487.5 37.1367188,487.5 C37.0976561,487.5 37.0325525,487.532552 36.9414062,487.597656 C36.85026,487.662761 36.7460943,487.82552 36.6289062,488.085938 C36.1080703,489.335944 35.5319042,490.452469 34.9003906,491.435547 C34.2688771,492.418625 33.6113315,493.25195 32.9277344,493.935547 C32.2441372,494.619144 31.5572951,495.156248 30.8671875,495.546875 C30.1770799,495.937502 29.513024,496.165364 28.875,496.230469 C28.7578119,496.477866 28.6210945,496.874997 28.4648438,497.421875 C28.308593,497.968753 28.2304688,498.717443 28.2304688,499.667969 C28.2304688,500.631515 28.3443999,501.461585 28.5722656,502.158203 C28.8001313,502.854821 28.9921867,503.326822 29.1484375,503.574219 Z" id="like---simple-line-icons"></path>
            </g>
        </g>
    </g>
</svg>