<?xml version="1.0" encoding="UTF-8"?>
<svg width="21px" height="21px" viewBox="0 0 21 21" version="1.1" xmlns="http://www.w3.org/2000/svg" xmlns:xlink="http://www.w3.org/1999/xlink">
    <!-- Generator: Sketch 52.6 (67491) - http://www.bohemiancoding.com/sketch -->
    <title>like - simple-line-icons copy 2</title>
    <desc>Created with Sketch.</desc>
    <g id="Page-1" stroke="none" stroke-width="1" fill="none" fill-rule="evenodd" opacity="0.4">
        <g id="Home" transform="translate(-852.000000, -919.000000)" fill="#0D132D">
            <g id="post-copy-2" transform="translate(827.000000, 433.000000)">
                <path d="M37.8945312,506.25 C35.0429545,506.25 33.3437527,506.188152 32.796875,506.064453 C32.2499973,505.940755 31.800783,505.748699 31.4492188,505.488281 C31.2669262,505.345051 30.9348982,505.221355 30.453125,505.117188 C29.9713518,505.01302 29.0924543,504.921875 27.8164062,504.84375 C27.7122391,504.830729 27.617839,504.807943 27.5332031,504.775391 C27.4485673,504.742838 27.3802086,504.6875 27.328125,504.609375 C27.3020832,504.570312 27.0709657,504.111333 26.6347656,503.232422 C26.1985655,502.353511 25.9804688,501.165372 25.9804688,499.667969 C25.9804688,498.183586 26.1367172,497.093102 26.4492188,496.396484 C26.7617203,495.699866 26.9244791,495.332031 26.9375,495.292969 C27.0026045,495.201822 27.0807287,495.130209 27.171875,495.078125 C27.2630213,495.026041 27.3671869,495 27.484375,495 C28.0052109,495 28.5716115,494.837241 29.1835938,494.511719 C29.795576,494.186196 30.4108042,493.707685 31.0292969,493.076172 C31.6477896,492.444658 32.2532522,491.669926 32.8457031,490.751953 C33.438154,489.83398 33.9817684,488.782558 34.4765625,487.597656 C34.6458342,487.194008 34.808593,486.868491 34.9648438,486.621094 C35.1210945,486.373697 35.5117156,486.25 36.1367188,486.25 C36.5013039,486.25 36.8626284,486.363931 37.2207031,486.591797 C37.5787778,486.819663 37.8554678,487.096353 38.0507812,487.421875 C38.2460947,487.747397 38.3763018,488.15755 38.4414062,488.652344 C38.5065107,489.147138 38.5260418,489.664711 38.5,490.205078 C38.4739582,490.745445 38.4186202,491.276039 38.3339844,491.796875 C38.2493485,492.317711 38.1614588,492.766925 38.0703125,493.144531 C38.7083365,493.144531 39.5156201,493.141276 40.4921875,493.134766 C41.4687549,493.128255 42.2369764,493.125 42.796875,493.125 C43.565108,493.125 44.1868466,493.333331 44.6621094,493.75 C45.1373722,494.166669 45.3815104,494.713538 45.3945312,495.390625 C45.3945312,495.61198 45.3815105,495.846353 45.3554688,496.09375 C45.329427,496.341147 45.2838545,496.542968 45.21875,496.699219 C45.3880217,496.86849 45.560546,497.080077 45.7363281,497.333984 C45.9121103,497.587892 46.0065104,497.877603 46.0195312,498.203125 C46.0325521,498.632815 45.9316417,499.003905 45.7167969,499.316406 C45.5019521,499.628908 45.3033863,499.882812 45.1210938,500.078125 C45.1601564,500.195313 45.2122393,500.335286 45.2773438,500.498047 C45.3424482,500.660808 45.3684896,500.839843 45.3554688,501.035156 C45.329427,501.516929 45.1731785,501.914061 44.8867188,502.226562 C44.600259,502.539064 44.3398449,502.779947 44.1054688,502.949219 C44.1315105,503.079428 44.1477864,503.255207 44.1542969,503.476562 C44.1608073,503.697918 44.1380211,503.906249 44.0859375,504.101562 C44.0078121,504.479169 43.8092464,504.804686 43.4902344,505.078125 C43.1712224,505.351564 42.7480495,505.572916 42.2207031,505.742188 C41.6933567,505.911459 41.0651078,506.038411 40.3359375,506.123047 C39.6067672,506.207683 38.7929732,506.25 37.8945312,506.25 Z M28.1484375,503.574219 C29.2682348,503.665365 30.1471322,503.779296 30.7851562,503.916016 C31.4231803,504.052735 31.8984359,504.23828 32.2109375,504.472656 C32.4583346,504.66797 32.8066384,504.804687 33.2558594,504.882812 C33.7050804,504.960938 35.2512889,505 37.8945312,505 C38.2851582,505 38.7539035,504.990234 39.3007812,504.970703 C39.847659,504.951172 40.3749975,504.902344 40.8828125,504.824219 C41.3906275,504.746093 41.8333314,504.628907 42.2109375,504.472656 C42.5885436,504.316405 42.8098955,504.101564 42.875,503.828125 C42.9140627,503.60677 42.8619799,503.404949 42.71875,503.222656 C42.5755201,503.040364 42.5039062,502.949219 42.5039062,502.949219 C42.4388018,502.792968 42.4355466,502.633464 42.4941406,502.470703 C42.5527347,502.307942 42.6601555,502.194011 42.8164062,502.128906 C42.8294271,502.128906 43.0442688,502.024741 43.4609375,501.816406 C43.8776062,501.608072 44.0924479,501.334637 44.1054688,500.996094 C44.1184896,500.761718 44.0729172,500.582683 43.96875,500.458984 C43.8645828,500.335286 43.8125,500.266927 43.8125,500.253906 C43.7213537,500.123697 43.6920571,499.973959 43.7246094,499.804688 C43.7571616,499.635416 43.838541,499.498698 43.96875,499.394531 C43.96875,499.394531 44.1022122,499.283855 44.3691406,499.0625 C44.636069,498.841145 44.7695312,498.56771 44.7695312,498.242188 C44.7565104,497.968749 44.6328137,497.747397 44.3984375,497.578125 C44.1640613,497.408853 44.0403646,497.324219 44.0273438,497.324219 C43.9492184,497.272135 43.8841148,497.210287 43.8320312,497.138672 C43.7799477,497.067057 43.7408855,496.985678 43.7148438,496.894531 C43.7018229,496.816406 43.705078,496.731771 43.7246094,496.640625 C43.7441407,496.549479 43.7799477,496.464844 43.8320312,496.386719 C43.8320312,496.386719 43.8841141,496.285808 43.9882812,496.083984 C44.0924484,495.88216 44.1445312,495.657553 44.1445312,495.410156 C44.1315104,494.902341 43.9329446,494.602865 43.5488281,494.511719 C43.1647116,494.420572 42.9140631,494.375 42.796875,494.375 C42.406248,494.375 41.8919303,494.375 41.2539062,494.375 C40.6158822,494.375 39.9941437,494.375 39.3886719,494.375 C38.7832001,494.375 38.262372,494.378255 37.8261719,494.384766 C37.3899718,494.391276 37.171875,494.394531 37.171875,494.394531 C37.0546869,494.394531 36.9505213,494.36849 36.859375,494.316406 C36.7682287,494.264323 36.6966148,494.192709 36.6445312,494.101562 C36.5794268,494.023437 36.5436198,493.932292 36.5371094,493.828125 C36.5305989,493.723958 36.5468748,493.619792 36.5859375,493.515625 C36.7421883,493.072914 36.8756505,492.584638 36.9863281,492.050781 C37.0970058,491.516924 37.17513,490.992841 37.2207031,490.478516 C37.2662763,489.96419 37.2727866,489.49219 37.2402344,489.0625 C37.2076821,488.63281 37.1197924,488.300782 36.9765625,488.066406 C36.8854162,487.923176 36.8007816,487.792969 36.7226562,487.675781 C36.6445309,487.558593 36.4492203,487.5 36.1367188,487.5 C36.0976561,487.5 36.0325525,487.532552 35.9414062,487.597656 C35.85026,487.662761 35.7460943,487.82552 35.6289062,488.085938 C35.1080703,489.335944 34.5319042,490.452469 33.9003906,491.435547 C33.2688771,492.418625 32.6113315,493.25195 31.9277344,493.935547 C31.2441372,494.619144 30.5572951,495.156248 29.8671875,495.546875 C29.1770799,495.937502 28.513024,496.165364 27.875,496.230469 C27.7578119,496.477866 27.6210945,496.874997 27.4648438,497.421875 C27.308593,497.968753 27.2304688,498.717443 27.2304688,499.667969 C27.2304688,500.631515 27.3443999,501.461585 27.5722656,502.158203 C27.8001313,502.854821 27.9921867,503.326822 28.1484375,503.574219 Z" id="like---simple-line-icons-copy-2"></path>
            </g>
        </g>
    </g>
</svg>